<?xml version="1.0" standalone="no"?>
<!DOCTYPE svg PUBLIC "-//W3C//DTD SVG 20010904//EN"
 "http://www.w3.org/TR/2001/REC-SVG-20010904/DTD/svg10.dtd">
<svg version="1.0" xmlns="http://www.w3.org/2000/svg"
 width="196.000000pt" height="196.000000pt" viewBox="0 0 196.000000 196.000000"
 preserveAspectRatio="xMidYMid meet">
<metadata>
Created by potrace 1.14, written by Peter Selinger 2001-2017
</metadata>
<g transform="translate(0.000000,196.000000) scale(0.100000,-0.100000)"
fill="#000000" stroke="none">
<path d="M815 1775 c-224 -49 -414 -185 -531 -380 -78 -130 -112 -252 -112
-409 0 -227 72 -409 225 -568 393 -407 1070 -297 1313 212 60 124 75 196 75
350 0 126 -5 165 -35 255 -89 267 -313 469 -601 542 -50 12 -274 11 -334 -2z
m257 -299 c100 -16 229 -91 296 -171 206 -251 126 -631 -163 -775 -279 -139
-616 4 -706 300 -110 364 194 707 573 646z"/>
</g>
</svg>
